Coordinates
version=1
nRows=10
nColumns=63
inDegrees=yes

Units are S.I. units (second, meters, Newtons, ...)
If the header above contains a line with 'inDegrees', this indicates whether rotational values are in degrees (yes) or radians (no).

endheader
time	pelvis_tilt	pelvis_list	pelvis_rotation	pelvis_tx	pelvis_ty	pelvis_tz	hip_flexion_r	hip_adduction_r	hip_rotation_r	knee_angle_r	knee_angle_r_beta	ankle_angle_r	subtalar_angle_r	mtp_angle_r	hip_flexion_l	hip_adduction_l	hip_rotation_l	knee_angle_l	knee_angle_l_beta	ankle_angle_l	subtalar_angle_l	mtp_angle_l	L5_S1_Flex_Ext	L5_S1_Lat_Bending	L5_S1_axial_rotation	L4_L5_Flex_Ext	L4_L5_Lat_Bending	L4_L5_axial_rotation	L3_L4_Flex_Ext	L3_L4_Lat_Bending	L3_L4_axial_rotation	L2_L3_Flex_Ext	L2_L3_Lat_Bending	L2_L3_axial_rotation	L1_L2_Flex_Ext	L1_L2_Lat_Bending	L1_L2_axial_rotation	L1_T12_Flex_Ext	L1_T12_Lat_Bending	L1_T12_axial_rotation	Abs_r3	Abs_r2	Abs_r1	Abs_t1	Abs_t2	neck_flexion	neck_bending	neck_rotation	arm_flex_r	arm_add_r	arm_rot_r	elbow_flex_r	pro_sup_r	wrist_flex_r	wrist_dev_r	arm_flex_l	arm_add_l	arm_rot_l	elbow_flex_l	pro_sup_l	wrist_flex_l	wrist_dev_l
    180.88000000	     40.71043828	    -37.87586139	   -837.06994909	      7.73309088	      0.73908820	     -6.24407509	     44.77242668	    -11.17341845	     -7.49209533	    101.37506348	      1.76932864	     12.85440321	    -11.99921828	     -0.12907850	     44.44954177	      1.29433999	     -2.93933520	    103.99253819	      1.81501219	     15.57294302	     -6.99908134	    -10.13472761	    -10.20525281	      0.15609411	      1.61305372	    -18.95217500	      0.20760516	      1.71386958	    -16.76620984	      0.37952721	      1.71386958	    -11.66358344	      0.37952721	      1.41142201	     -9.47659776	      0.31830710	      1.31060615	     -5.83128146	      0.24178977	      1.20979029	    -72.89510031	      1.76576775	      8.97132088	      0.00000000	      0.00000000	     27.45064831	      0.26840836	     -0.95340922	     75.97087264	    -11.17367174	    399.03259916	    123.08865237	     75.65751983	      1.88342634	      9.22372501	     55.93573373	    -15.65714246	     32.96221339	    132.99714924	     90.62949971	    -10.97329081	     13.30834612
    180.96000000	     42.07291650	    -38.58592882	   -835.02597440	      7.90232314	      0.76156436	     -6.26237914	     42.79743036	    -12.84464805	     -7.42901132	     98.66148903	      1.72196783	     11.64335565	    -11.59168380	      1.71673377	     42.62494935	      1.68393952	     -3.28400026	    100.87837000	      1.76065970	     11.84934743	     -8.44085213	     -7.59194039	    -10.32306283	      0.29113725	      1.85143012	    -19.17095998	      0.38721255	      1.96714451	    -16.95975993	      0.70787111	      1.96714451	    -11.79822851	      0.70787111	      1.62000136	     -9.58599615	      0.59368708	      1.50428698	     -5.89859810	      0.45097160	      1.38857259	    -73.73660550	      3.29340282	     10.29709892	      0.00000000	      0.00000000	     27.31545457	     -0.69478451	     -0.93397468	     75.46533874	    -13.04884631	    396.61137590	    121.87280557	     74.76617270	      0.44792477	      5.56824400	     57.17916770	    -15.19783510	     33.79161897	    133.84059459	     89.87498590	    -11.50098719	     10.31642739
    181.04000000	     38.24039001	    -39.35917765	   -838.85168263	      7.63772478	      0.75068031	     -6.28263309	     42.74099198	    -11.41559131	     -7.28757518	    100.56029100	      1.75510817	     12.33997688	    -12.43559232	      0.84230605	     42.00245664	      0.90669435	     -2.94189488	    102.35976123	      1.78651486	     13.97105183	     -7.67146172	     -9.86226102	    -10.30939355	      0.16786571	      1.76009511	    -19.14557475	      0.22326139	      1.87010105	    -16.93730266	      0.40814869	      1.87010105	    -11.78260588	      0.40814869	      1.54008322	     -9.57330285	      0.34231176	      1.43007728	     -5.89078747	      0.26002398	      1.32007133	    -73.63896715	      1.89893048	      9.78912097	      0.00000000	      0.00000000	     27.14172908	      0.70671517	     -1.86492464	     76.28008720	    -10.63760347	    396.30030751	    126.60802395	     74.73267870	      1.65062474	      5.93497682	     57.89001781	    -13.53100781	     32.17089647	    136.03294369	     89.45609483	     -9.55998335	      9.44060379
    181.12000000	     37.08312851	    -38.08480354	   -840.42350972	      7.68215847	      0.75072344	     -6.29537110	     43.60346297	    -12.28618941	     -6.64780473	    102.35415935	      1.78641708	     15.78438115	    -10.22828928	     -0.18324971	     43.25905928	      1.04489080	     -3.04255286	    104.33722934	      1.82102818	     15.24294619	     -7.27813368	    -10.05592072	    -10.35569358	      0.28231383	      1.69497058	    -19.23155855	      0.37547740	      1.80090624	    -17.01336898	      0.68641785	      1.80090624	    -11.83552219	      0.68641785	      1.48309926	     -9.61629706	      0.57569437	      1.37716360	     -5.91724331	      0.43730413	      1.27122794	    -73.96968367	      3.19359055	      9.42691788	      0.00000000	      0.00000000	     27.40318567	      0.59270370	     -1.53410338	     77.67395263	    -12.10814401	    396.02782311	    123.14741439	     75.03051339	      0.56095481	      6.52920492	     58.59852101	    -13.39770842	     31.96166549	    134.62482719	     89.59610930	    -10.37825396	     10.17459933
    181.20000000	     41.54696408	    -36.04237141	   -838.12771651	      7.63904273	      0.74958444	     -6.28243367	     45.27574825	    -10.65989331	     -6.94387792	    102.11844318	      1.78230306	     14.19155230	    -12.40938172	      0.16933637	     44.32490683	      1.55439099	     -3.54485683	    104.61810075	      1.82593032	     16.00681350	     -7.07620312	    -11.06700091	    -10.16977684	      0.13374131	      1.76924197	    -18.88629256	      0.17787594	      1.87981959	    -16.70792637	      0.32517862	      1.87981959	    -11.62303795	      0.32517862	      1.54808672	     -9.44365477	      0.27272528	      1.43750910	     -5.81101048	      0.20716529	      1.32693148	    -72.64169897	      1.51290844	      9.83999305	      0.00000000	      0.00000000	     27.55152990	     -0.04767753	     -3.22438277	     76.33664830	    -10.88408266	    396.91777783	    124.31766352	     75.35115133	      1.08001016	      7.46263007	     57.07602284	    -14.02444796	     33.21084845	    134.49966032	     90.29709907	    -10.12967225	     11.42397328
    181.28000000	     36.69898576	    -38.96213441	   -839.28511317	      7.52505201	      0.74699910	     -6.34164627	     43.59512668	    -12.08154850	     -6.45699097	    101.09366825	      1.76441736	     14.16430827	    -11.15608270	      0.51078743	     43.41975307	      1.68735480	     -2.97709131	    104.08575771	      1.81663918	     14.69994234	     -7.67405208	     -9.95374338	    -10.42980309	      0.30648587	      1.66910646	    -19.36918732	      0.40762621	      1.77342562	    -17.13512349	      0.74518976	      1.77342562	    -11.92022195	      0.74518976	      1.46046815	     -9.68511515	      0.62498600	      1.35614900	     -5.95958948	      0.47474662	      1.25182985	    -74.49904048	      3.46702951	      9.28306941	      0.00000000	      0.00000000	     27.41817383	      1.39354454	     -3.27314227	     78.36016290	    -12.75389232	    395.92201217	    123.39428785	     75.21273152	     -0.11380727	      7.34989616	     58.35435711	    -14.20142739	     31.58667836	    134.99455232	     90.03716996	    -11.13399277	     11.17809594
    181.36000000	     41.61213381	    -35.11190711	   -837.24805290	      7.42127611	      0.78381530	     -6.30452975	     44.30064555	    -11.51094599	     -7.51998819	     97.83937284	      1.70761919	     10.49918638	    -13.60432111	      1.60532676	     43.30150506	      0.91419313	     -3.03849410	    100.08350776	      1.74678674	     12.35914053	     -7.57652143	     -9.88487821	     -9.91613434	      0.28769674	      1.95878481	    -18.41525308	      0.38263667	      2.08120886	    -16.29121710	      0.69950586	      2.08120886	    -11.33314993	      0.69950586	      1.71393671	     -9.20812235	      0.58667120	      1.59151266	     -5.66607916	      0.44564225	      1.46908861	    -70.82995596	      3.25448309	     10.89417349	      0.00000000	      0.00000000	     27.69465344	     -0.39905694	     -3.36547068	     74.92610806	    -10.30987449	    396.24815330	    124.59466130	     75.12935314	      0.68229850	      7.51985155	     57.54280308	    -11.79682832	     33.20361120	    133.85682991	     90.58741178	    -11.61247229	     10.90028432
    181.44000000	     40.01631652	    -37.20101674	   -836.91739055	      7.57621569	      0.77162925	     -6.32189550	     43.28951321	    -12.91730923	     -6.96430638	     99.30586439	      1.73321430	     14.82218746	    -10.31452477	      7.49636361	     43.06802259	      1.99261576	     -2.90478141	    101.64608436	      1.77405884	     14.62366393	     -6.92000536	     -2.21833256	    -10.20278430	      0.42040326	      1.74378691	    -18.94759072	      0.55913633	      1.85277360	    -16.76215432	      1.02216848	      1.85277360	    -11.66076217	      1.02216848	      1.52581355	     -9.47430550	      0.85728632	      1.41682687	     -5.82987095	      0.65120465	      1.30784019	    -72.87746795	      4.75568573	      9.69841968	      0.00000000	      0.00000000	     27.61122129	     -0.13341765	     -3.48660706	     77.63620485	    -13.12275988	    395.84649072	    122.07087005	     72.20505832	     -2.01165238	      7.41172678	     57.86875461	    -13.17348359	     32.61545299	    133.43986121	     88.01515350	    -14.28588338	     10.71558965
    181.52000000	     37.42619309	    -35.40492648	   -842.01775226	      7.56991766	      0.77977829	     -6.27949790	     43.84433876	    -10.46041232	     -7.14330713	     99.62903632	      1.73885471	     12.02315563	    -13.06237061	     -1.37353059	     42.95069925	      0.55558010	     -2.67879163	    101.80694751	      1.77686644	     12.38952678	     -8.30766169	    -17.20574666	    -10.03096209	      0.34173400	      1.78171914	    -18.62849970	      0.45450622	      1.89307658	    -16.47986762	      0.83089205	      1.89307658	    -11.46438657	      0.83089205	      1.55900424	     -9.31475140	      0.69686398	      1.44764680	     -5.73169174	      0.52934597	      1.33628935	    -71.65015911	      3.86576339	      9.90938732	      0.00000000	      0.00000000	     27.53827080	      0.67152538	     -3.87329239	     76.37273426	     -9.82494968	    399.84583833	    121.26256968	     76.61941535	      2.49004694	     12.61618353	     55.79570768	    -13.00955121	     33.51158698	    131.77122469	     94.60408485	    -12.44732484	     14.70716921
    181.60000000	     35.83668016	    -37.86059740	   -841.32833192	      7.64750912	      0.76478921	     -6.30753962	     42.72631431	    -12.14978919	     -6.43414208	    101.19405617	      1.76616946	     16.65345936	     -9.45797530	      6.19938366	     42.57127964	      1.96135463	     -2.69783120	    103.56589017	      1.80756578	     16.55840141	     -6.67702500	     -1.60352818	    -10.36947317	      0.48181577	      1.56324637	    -19.25714862	      0.64081497	      1.66094927	    -17.03600747	      1.17148686	      1.66094927	    -11.85127089	      1.17148686	      1.36784058	     -9.62909279	      0.98251872	      1.27013768	     -5.92511697	      0.74633263	      1.17243478	    -74.06810990	      5.45039634	      8.69430735	      0.00000000	      0.00000000	     27.46562108	      0.81679389	     -4.03997897	     79.66360140	    -12.95653569	    400.08017536	    118.55974467	     72.38172714	     -2.49798982	     10.94469109	     56.36295975	    -14.30013748	     32.99689897	    131.32399859	     88.12144998	    -16.06822558	     14.09401432
